<svg width="24" height="24" viewBox="0 0 24 24" xmlns="http://www.w3.org/2000/svg">
  <path fill="#EA4335" d="M12 10.2v3.6h5.1c-.2 1.2-.9 2.4-2.1 3.1l3.3 2.5c1.9-1.8 3-4.4 3-7.6 0-.7-.1-1.4-.2-2H12z"></path>
  <path fill="#34A853" d="M5.3 14.1c-.3-.9-.5-1.8-.5-2.7s.2-1.9.5-2.7l-3.3-2.5C1.3 7.8 1 9.4 1 11.4s.3 3.6 1 5.2l3.3-2.5z"></path>
  <path fill="#FBBC05" d="M12 4.8c1.4 0 2.6.5 3.5 1.3l2.6-2.6C16.4 1.7 14.3.9 12 .9 7.8.9 4.3 3.3 2.7 6.2l3.3 2.5C6.6 6 9.1 4.8 12 4.8z"></path>
  <path fill="#4285F4" d="M12 21c2.3 0 4.4-.8 6-2.2l-3.3-2.5c-.9.6-2.1 1-3.5 1-2.9 0-5.4-1.9-6.3-4.5L2.7 16c1.6 2.9 5.1 5 9.3 5z"></path>
</svg>
